<svg width="351" height="315" viewBox="0 0 351 315" fill="none" xmlns="http://www.w3.org/2000/svg">
<g clip-path="url(#clip0_1_60)">
<path d="M319.032 22.3442C317.193 14.2096 317.071 12.2712 314.521 10.7827C313.913 10.4279 313.003 10.1423 311.927 9.91733C309.871 7.98752 306.097 5.07117 301.36 4.31829C294.117 3.15867 291.323 3.59137 289.545 2.44041C287.758 1.28079 283.073 0.164443 281.624 2.47502C280.193 4.75098 280.236 12.1241 282.414 15.2394C282.11 18.6923 282.266 23.3741 282.24 28.5491C282.136 51.6548 288.365 52.9529 299.469 53.1779C313.35 53.4721 320.871 30.4702 319.032 22.3442Z" fill="#212C59"/>
<path d="M294.489 29.9942C292.017 28.4279 289.779 33.724 289.779 33.724C289.779 33.724 289.718 32.9452 287.966 30.1673C286.213 27.3981 288.451 16.6154 288.451 16.6154C285.918 17.5154 282.405 15.2308 282.405 15.2308C282.101 18.6837 282.257 23.3654 282.231 28.5404C282.162 43.6413 284.799 49.4221 289.735 51.6808C288.729 47.9163 290.924 39.375 290.924 39.375C292.624 38.4231 296.971 31.5606 294.489 29.9942Z" fill="#EAA794"/>
<path d="M221.21 17.4029C221.21 17.4029 218.842 25.7106 219.449 32.7029C220.056 39.6865 222.468 46.0817 223.552 46.5577C224.637 47.0337 228.862 46.5577 228.862 46.5577L233.937 37.7654L236.669 20.7779L221.21 17.4029Z" fill="#EAA794"/>
<path d="M74.4335 40.7683C74.4335 40.7683 77.574 39.0808 78.1726 40.4654C78.7798 41.85 76.8539 48.8683 74.0778 48.3145C71.2931 47.752 71.2931 47.0943 71.2931 47.0943L74.4335 40.7683Z" fill="#EAA794"/>
<path d="M66.3397 54.9692C66.3397 54.9692 66.4611 60.049 67.3633 60.949C68.2656 61.849 57.5864 63.8394 55.834 63.1731C54.0816 62.5067 53.483 62.1519 53.483 62.1519C53.483 62.1519 55.3568 59.9279 54.7496 57.6952C54.1423 55.4712 66.3397 54.9692 66.3397 54.9692Z" fill="#EAA794"/>
<path d="M25.6093 89.4375C25.6093 89.4375 18.1052 108.917 17.1943 114.551C16.6912 117.675 42.552 138.773 42.552 138.773L48.7722 130.336L29.1488 113.106L35.3082 96.776L25.6093 89.4375Z" fill="#EAA794"/>
<path d="M44.1223 304.711C44.1223 304.711 43.2895 313.771 44.0095 314.316C44.7382 314.861 58.1935 314.861 60.371 314.619C62.5485 314.377 58.4971 311.911 57.4735 311.487C56.4498 311.062 52.5806 309.081 51.9213 308.596C51.2533 308.112 50.4639 304.711 50.4639 304.711H44.1223Z" fill="#0C467C"/>
<path d="M68.1785 304.918C68.1785 304.918 68.0831 313.771 68.8118 314.316C69.5406 314.861 82.9959 314.861 85.1733 314.619C87.3508 314.377 83.2995 311.911 82.2758 311.487C81.2521 311.062 77.383 309.081 76.7237 308.596C76.0557 308.112 75.0667 304.711 75.0667 304.711L68.1785 304.918Z" fill="#0C467C"/>
<path d="M31.2137 66.5135C31.2137 66.5135 19.1898 87.9923 19.1898 98.2904C19.1898 100.463 35.1262 107.507 37.4859 103.708C39.8369 99.9173 31.2137 66.5135 31.2137 66.5135Z" fill="#D8D8DB"/>
<path d="M58.4886 60.5337C64.7868 60.7154 73.8524 55.8519 80.5584 62.5154C95.341 77.2096 86.9867 119.008 84.5663 130.327H39.0821C39.0821 130.327 26.8326 76.8375 31.5346 65.5529C33.8943 59.9019 44.2265 60.1096 58.4886 60.5337Z" fill="#D8D8DB"/>
<path d="M36.089 62.7577C36.089 62.7577 34.7617 59.7462 33.6166 59.6856C32.4714 59.625 30.6843 59.8933 29.5132 60.8625C27.6393 62.3942 27.2229 65.3279 27.3964 66.5135C27.5786 67.6991 29.5479 68.4346 30.1812 68.4173C30.8058 68.4087 32.35 68.4173 32.35 68.4173L36.089 62.7577Z" fill="#EAA794"/>
<path d="M89.112 93.4615L87.8801 100.636C87.8801 100.636 95.9307 118.947 97.9781 119.665C100.034 120.392 108.839 120.392 108.839 120.392L92.1744 89.4375L89.112 93.4615Z" fill="#EAA794"/>
<path d="M77.305 60.1875C77.305 60.1875 81.4344 60.525 86.388 68.1145C91.3415 75.7039 98.3077 93.1673 97.1192 95.9366C95.9307 98.7058 84.8177 102.92 84.8177 102.92L77.305 60.1875Z" fill="#D8D8DB"/>
<path d="M90.6995 159.058C90.3351 144.121 84.5661 130.327 84.5661 130.327H39.0818C39.0818 130.327 30.2158 140.746 30.2158 167.166C30.2158 174.029 33.3215 190.973 33.3215 190.973L36.3665 217.921L43.1679 304.468C43.2113 305.057 43.7057 305.515 44.3043 305.515H51.2532C51.8518 305.515 52.3463 305.057 52.3897 304.468L60.475 198.917L67.4065 304.451C67.4499 305.048 67.9443 305.515 68.5429 305.515H75.5092C76.0904 305.515 76.5762 305.083 76.6456 304.503C77.9816 292.301 91.0465 173.224 90.6995 159.058Z" fill="#212C59"/>
<path d="M146.429 20.2327C146.429 20.2327 146.88 30.8942 147.158 32.6077C147.427 34.3212 149.691 35.5846 149.691 36.9433C149.691 38.3019 147.696 40.5606 147.245 41.1923C146.794 41.8241 146.88 48.2971 145.163 49.6644C143.445 51.0404 123.882 46.7048 123.882 46.7048L122.217 30.7125C122.208 30.7125 135.924 17.9741 146.429 20.2327Z" fill="#EAA794"/>
<path d="M117.255 45.4414C117.255 45.4414 108.831 34.3298 108.84 20.7779C108.84 14.1837 113.646 14.1491 116.092 11.475C118.538 8.80101 124.698 3.34043 134.388 2.9337C144.078 2.51831 144.443 -1.79996 147.705 0.874083C150.966 3.54812 149.067 12.5049 147.705 13.7424C146.343 14.9799 148.52 13.327 149.969 16.1135C151.418 18.8914 147.436 22.3356 143.627 22.725C139.827 23.1145 139.099 22.725 139.099 22.725C139.099 22.725 141.328 27.5366 140.487 30.9375C139.645 34.3385 137.65 38.6568 137.381 39.6866C137.112 40.7164 136.019 33.8625 133.937 33.2481C131.855 32.6337 130.588 37.0125 131.76 39.0722C132.939 41.1318 135.837 44.2212 134.293 47.3106C132.749 50.3914 117.255 45.4414 117.255 45.4414Z" fill="#212C59"/>
<path d="M108.241 304.711C108.241 304.711 107.408 313.771 108.128 314.316C108.857 314.861 120.343 314.861 122.52 314.619C124.698 314.377 121.375 310.569 120.343 310.145C119.319 309.721 116.196 307.54 115.537 307.056C114.869 306.571 114.582 304.711 114.582 304.711H108.241Z" fill="#C16E4F"/>
<path d="M137.945 304.918C137.945 304.918 137.849 313.771 138.578 314.316C139.307 314.861 152.762 314.861 154.94 314.619C157.117 314.377 153.066 311.911 152.042 311.487C151.018 311.062 147.149 309.081 146.49 308.596C145.822 308.112 144.833 304.711 144.833 304.711L137.945 304.918Z" fill="#C16E4F"/>
<path d="M258.453 148.336L259.173 229.396L279.464 304.373L271.162 305.524L240.096 234.216L233.104 189.649L221.21 305.896L212.153 305.152L209.906 159.023L258.453 148.336Z" fill="#EAA794"/>
<path d="M223.266 307.419C222.979 305.68 221.132 304.789 221.132 304.789C221.132 304.789 212.639 304.339 211.858 304.814C211.086 305.299 207.702 307.125 204.709 307.419C202.02 307.679 195.358 309.496 194.23 312.3C194.039 312.776 194.395 313.295 194.915 313.295H222.589C223.942 313.304 223.561 309.159 223.266 307.419Z" fill="#0C467C"/>
<path d="M281.364 303.118C280.453 301.612 278.406 301.448 278.406 301.448C278.406 301.448 270.338 304.131 269.791 304.866C269.487 305.273 268.577 306.355 267.379 307.48C264.456 307.887 258.453 309.652 257.385 312.3C257.195 312.776 257.55 313.295 258.071 313.295H270.832L282.899 308.83C284.149 308.345 282.266 304.633 281.364 303.118Z" fill="#0C467C"/>
<path d="M116.448 140.746L95.8007 146.527L106.22 304.217C106.272 304.953 106.879 305.515 107.616 305.515H114.808C115.537 305.515 116.135 304.962 116.196 304.243L125.895 190.973L136.618 304.261C136.687 304.979 137.286 305.524 138.006 305.524H144.477C145.215 305.524 145.822 304.953 145.874 304.217L155.573 151.702L116.448 140.746Z" fill="#0C467C"/>
<path d="M268.724 146.527L277.287 305.524H287.515L296.849 193.829L308.925 305.524H318.72L328.497 151.702L289.371 140.746L268.724 146.527Z" fill="#0C467C"/>
<path d="M155.573 159.058L160.127 305.619C160.145 306.26 160.631 306.787 161.264 306.865L168.499 307.765C169.219 307.852 169.878 307.333 169.957 306.606L182.379 185.305L197.223 306C197.31 306.684 197.917 307.186 198.602 307.134L205.49 306.666C206.15 306.623 206.67 306.087 206.705 305.42L212.491 161.455L155.573 159.058Z" fill="#212C59"/>
<path d="M147.418 49.6818C147.418 49.6818 136.366 45.0606 121.696 45.476C107.026 45.8914 94.1698 52.5722 93.4411 54.0173C92.7123 55.4625 94.5255 108.537 92.1745 128.639C89.1034 154.835 92.5735 161.922 93.0854 162.666C101.24 174.418 139.081 174.349 151.218 168.568C163.355 162.788 164.257 138.764 164.257 138.764L147.418 49.6818Z" fill="#F3D166"/>
<path d="M93.2936 107.342C93.2502 109.376 93.2068 111.358 93.1461 113.279C103.556 115.33 117.749 117.372 132.905 117.372C141.719 117.372 150.862 116.68 159.755 114.888L158.67 109.177C135.108 113.885 109.256 110.51 93.2936 107.342Z" fill="#0CA6B4"/>
<path d="M91.2809 138.141C91.1334 140.279 91.038 142.243 90.9773 144.052C101.535 146.233 116.673 148.587 132.896 148.587C142.985 148.587 153.482 147.652 163.572 145.229C164.04 142.217 164.196 139.907 164.24 139.093C138.292 145.887 108.215 141.655 91.2809 138.141Z" fill="#0CA6B4"/>
<path d="M158.054 162C159.295 159.992 160.292 157.751 161.091 155.475C135.82 161.178 107.382 157.102 91.1508 153.727C91.3677 156.496 91.7234 158.487 92.0617 159.888C102.559 162 117.22 164.198 132.896 164.198C141.164 164.181 149.7 163.549 158.054 162Z" fill="#0CA6B4"/>
<path d="M92.695 122.824C92.5475 124.962 92.3827 126.926 92.1832 128.639C92.1832 128.657 92.1832 128.674 92.1745 128.691C102.663 130.803 117.281 132.984 132.905 132.984C142.664 132.984 152.806 132.101 162.583 129.851L161.507 124.183C136.921 129.834 109.23 126.156 92.695 122.824Z" fill="#0CA6B4"/>
<path d="M93.4411 91.7654C93.4411 93.7471 93.4324 95.7375 93.4237 97.7279C103.808 99.7616 117.888 101.769 132.913 101.769C140.79 101.769 148.919 101.181 156.909 99.7875L155.833 94.0933C133.113 97.9962 108.762 94.8029 93.4411 91.7654Z" fill="#0CA6B4"/>
<path d="M93.2673 60.5337C93.2673 62.2558 93.2847 64.2635 93.302 66.5048C103.695 68.5385 117.827 70.5721 132.904 70.5721C138.899 70.5721 145.041 70.226 151.157 69.4558L150.081 63.7442C129.001 66.2798 107.304 63.3202 93.2673 60.5337Z" fill="#0CA6B4"/>
<path d="M144.547 48.6693C131.907 49.6385 119.311 48.825 108.51 47.4231C103.782 48.6606 99.7913 50.2616 97.102 51.6116C107.018 53.3856 119.588 54.9606 132.887 54.9606C137.945 54.9606 143.098 54.7183 148.26 54.1904L147.41 49.6817C147.418 49.6817 146.386 49.2577 144.547 48.6693Z" fill="#0CA6B4"/>
<path d="M93.3716 76.1539C93.3889 78.0837 93.3976 80.0827 93.415 82.125C103.799 84.1587 117.879 86.1664 132.905 86.1664C139.845 86.1664 146.976 85.725 154.046 84.6692L152.962 78.9491C131.057 82.1337 108.059 79.0616 93.3716 76.1539Z" fill="#0CA6B4"/>
<path d="M258.808 137.25C258.808 137.25 271.622 148.725 269.93 177.387C268.238 206.057 261.584 220.699 261.584 220.699H208.865C208.865 220.699 202.515 175.993 205.889 161.109C209.273 146.224 217.297 138.764 217.297 138.764L258.808 137.25Z" fill="#0C467C"/>
<path d="M264.63 193.448C261.585 191.068 258.427 188.602 255.052 188.083C250.957 187.451 247.696 189.312 244.538 191.103C241.623 192.756 238.613 194.461 234.7 194.521C230.562 194.564 226.172 192.28 221.921 190.056C217.662 187.823 213.611 185.712 209.828 185.902C208.284 185.98 206.783 186.404 205.378 187.001C205.447 188.031 205.517 189.061 205.586 190.09C206.974 189.372 208.457 188.862 209.976 188.784C212.995 188.628 216.673 190.566 220.568 192.609C225.14 195.006 229.816 197.481 234.735 197.412C239.385 197.342 242.881 195.361 245.952 193.612C248.936 191.925 251.513 190.462 254.592 190.938C257.221 191.345 260.066 193.569 262.825 195.724C264.343 196.91 265.87 198.095 267.432 199.047C267.605 198.043 267.779 197.013 267.952 195.949C266.876 195.205 265.757 194.331 264.63 193.448Z" fill="#D8D8DB"/>
<path d="M264.629 201.392C261.584 199.013 258.427 196.546 255.052 196.027C250.957 195.404 247.695 197.256 244.538 199.047C241.623 200.7 238.612 202.405 234.7 202.465C230.562 202.509 226.172 200.224 221.921 198C217.662 195.767 213.61 193.664 209.828 193.846C208.492 193.915 207.191 194.236 205.95 194.712C206.037 195.724 206.124 196.737 206.219 197.732C207.425 197.178 208.692 196.797 209.975 196.737C212.994 196.589 216.673 198.519 220.568 200.562C225.14 202.959 229.816 205.408 234.735 205.364C239.385 205.295 242.881 203.313 245.952 201.565C248.936 199.878 251.512 198.415 254.592 198.891C257.221 199.298 260.066 201.522 262.825 203.677C263.875 204.499 264.942 205.321 266.017 206.074C266.243 205.096 266.46 204.066 266.677 202.993C266.009 202.474 265.323 201.938 264.629 201.392Z" fill="#D8D8DB"/>
<path d="M220.577 208.497C225.149 210.894 229.824 213.361 234.743 213.3C239.393 213.231 242.889 211.249 245.96 209.501C248.945 207.813 251.521 206.351 254.601 206.827C257.23 207.234 260.075 209.458 262.834 211.613C263.328 211.993 263.823 212.383 264.317 212.755C264.586 211.829 264.864 210.825 265.141 209.735C264.968 209.605 264.794 209.466 264.621 209.328C261.576 206.948 258.418 204.482 255.043 203.962C250.949 203.331 247.687 205.191 244.529 206.983C241.614 208.636 238.604 210.34 234.691 210.401C230.553 210.436 226.164 208.16 221.913 205.936C217.653 203.703 213.602 201.583 209.819 201.782C208.735 201.834 207.685 202.067 206.67 202.396C206.774 203.4 206.878 204.395 206.983 205.347C207.954 204.975 208.961 204.715 209.976 204.663C213.003 204.534 216.673 206.455 220.577 208.497Z" fill="#D8D8DB"/>
<path d="M263.25 216.216C260.63 214.209 257.915 212.357 255.043 211.915C250.949 211.284 247.687 213.144 244.529 214.936C241.614 216.588 238.604 218.293 234.691 218.354C230.553 218.388 226.163 216.112 221.913 213.888C217.653 211.656 213.602 209.544 209.819 209.735C209.03 209.778 208.266 209.916 207.512 210.107C207.633 211.128 207.746 212.088 207.859 212.997C208.553 212.798 209.255 212.651 209.975 212.616C212.994 212.478 216.673 214.399 220.568 216.441C223.83 218.155 227.144 219.86 230.562 220.699H238.638C241.449 219.981 243.809 218.665 245.96 217.445C248.945 215.758 251.521 214.295 254.601 214.771C257.039 215.143 259.667 217.09 262.235 219.089C262.513 218.371 262.86 217.411 263.25 216.216Z" fill="#D8D8DB"/>
<path d="M234.743 141.793C239.393 141.724 242.889 139.742 245.96 137.994C246.142 137.89 246.316 137.795 246.489 137.7L239.532 137.951C238.057 138.496 236.47 138.877 234.691 138.903C233.364 138.912 232.01 138.669 230.64 138.28L223.578 138.539C227.196 140.339 230.9 141.828 234.743 141.793Z" fill="#D8D8DB"/>
<path d="M264.629 161.662C261.584 159.283 258.427 156.816 255.052 156.297C250.957 155.665 247.695 157.526 244.538 159.317C241.623 160.97 238.612 162.675 234.7 162.736C230.562 162.753 226.172 160.494 221.921 158.27C217.662 156.037 213.61 153.935 209.828 154.116C209.169 154.151 208.518 154.263 207.876 154.411C207.486 155.475 207.113 156.591 206.766 157.768C207.807 157.353 208.882 157.059 209.967 157.007C212.986 156.851 216.664 158.789 220.559 160.832C225.131 163.229 229.807 165.678 234.726 165.635C239.376 165.565 242.872 163.584 245.943 161.836C248.927 160.148 251.504 158.686 254.584 159.162C257.212 159.568 260.058 161.792 262.816 163.947C265.15 165.773 267.527 167.608 269.973 168.56C269.921 167.443 269.852 166.344 269.757 165.288C268.117 164.397 266.399 163.047 264.629 161.662Z" fill="#D8D8DB"/>
<path d="M264.629 153.718C261.584 151.338 258.427 148.872 255.052 148.353C250.957 147.721 247.695 149.582 244.538 151.373C241.623 153.026 238.612 154.731 234.7 154.791C230.562 154.809 226.172 152.55 221.921 150.326C218.347 148.448 214.929 146.691 211.693 146.267C211.19 147.124 210.678 148.059 210.175 149.062C213.159 149.011 216.751 150.88 220.577 152.879C225.148 155.276 229.824 157.76 234.743 157.682C239.393 157.612 242.889 155.631 245.96 153.883C248.945 152.195 251.521 150.733 254.601 151.209C257.229 151.615 260.075 153.839 262.834 155.994C264.89 157.595 266.972 159.222 269.115 160.243C268.898 158.928 268.637 157.682 268.36 156.487C267.154 155.691 265.905 154.713 264.629 153.718Z" fill="#D8D8DB"/>
<path d="M255.043 140.409C250.949 139.777 247.687 141.637 244.529 143.429C241.614 145.082 238.604 146.787 234.691 146.847C230.553 146.873 226.164 144.606 221.913 142.382C220.03 141.395 218.2 140.443 216.404 139.699C215.909 140.244 215.25 141.014 214.478 142.044C216.395 142.771 218.443 143.836 220.559 144.943C225.131 147.34 229.807 149.807 234.726 149.746C239.376 149.677 242.872 147.695 245.943 145.947C248.927 144.26 251.504 142.797 254.584 143.273C257.212 143.68 260.058 145.904 262.816 148.059C264.109 149.071 265.419 150.092 266.746 150.958C266.07 149.011 265.332 147.288 264.595 145.774C261.576 143.394 258.418 140.928 255.043 140.409Z" fill="#D8D8DB"/>
<path d="M264.63 185.504C261.585 183.124 258.427 180.658 255.052 180.138C250.957 179.507 247.696 181.367 244.538 183.159C241.623 184.812 238.613 186.516 234.7 186.577C230.562 186.629 226.172 184.336 221.921 182.112C217.662 179.879 213.611 177.776 209.828 177.958C208.136 178.044 206.514 178.537 204.996 179.238C205.031 180.277 205.074 181.341 205.126 182.406C206.644 181.558 208.293 180.935 209.984 180.848C213.003 180.71 216.682 182.631 220.577 184.673C225.149 187.07 229.825 189.528 234.743 189.476C239.393 189.407 242.889 187.425 245.96 185.677C248.945 183.989 251.521 182.527 254.601 183.003C257.23 183.41 260.075 185.634 262.834 187.788C264.716 189.26 266.616 190.731 268.568 191.752C268.698 190.748 268.828 189.71 268.95 188.654C267.553 187.788 266.104 186.655 264.63 185.504Z" fill="#D8D8DB"/>
<path d="M264.629 169.607C261.584 167.227 258.427 164.761 255.052 164.241C250.957 163.61 247.695 165.47 244.537 167.262C241.623 168.914 238.612 170.619 234.7 170.68C230.562 170.74 226.172 168.438 221.921 166.214C217.662 163.982 213.61 161.87 209.828 162.061C208.336 162.138 206.887 162.528 205.525 163.099C205.369 164.138 205.239 165.271 205.143 166.491C206.653 165.652 208.292 165.038 209.967 164.951C212.986 164.804 216.664 166.734 220.559 168.776C225.131 171.173 229.807 173.639 234.726 173.579C239.376 173.51 242.872 171.528 245.943 169.78C248.927 168.092 251.504 166.63 254.583 167.106C257.212 167.513 260.057 169.737 262.816 171.891C265.141 173.709 267.51 175.543 269.947 176.495C269.999 175.431 270.034 174.401 270.043 173.388C268.325 172.506 266.503 171.078 264.629 169.607Z" fill="#D8D8DB"/>
<path d="M264.63 177.56C261.585 175.18 258.427 172.713 255.052 172.194C250.957 171.562 247.695 173.423 244.538 175.214C241.623 176.867 238.613 178.572 234.7 178.633C230.562 178.693 226.172 176.391 221.921 174.167C217.662 171.935 213.61 169.823 209.828 170.013C208.11 170.1 206.462 170.611 204.927 171.32C204.909 172.376 204.892 173.466 204.901 174.583C206.479 173.665 208.206 172.99 209.976 172.895C212.995 172.757 216.673 174.678 220.568 176.72C225.14 179.117 229.816 181.558 234.735 181.523C239.385 181.454 242.881 179.472 245.952 177.724C248.936 176.037 251.513 174.574 254.592 175.05C257.221 175.457 260.066 177.681 262.825 179.836C264.977 181.514 267.163 183.211 269.401 184.214C269.496 183.202 269.583 182.172 269.661 181.116C268.056 180.234 266.365 178.91 264.63 177.56Z" fill="#D8D8DB"/>
<path d="M212.483 45.5366C225.062 42.4471 254.479 43.226 263.033 56.8298C270.06 67.9933 263.207 78.075 264.239 94.6125C265.358 112.509 266.052 130.353 264.3 135.684C260.916 145.938 254.601 138.488 237.459 138.764C220.316 139.041 206.939 149.85 203.391 138.764C199.843 127.679 186.023 52.0442 212.483 45.5366Z" fill="#DE3E37"/>
<path d="M218.512 59.2096C218.512 59.2096 222.685 54.7788 223.769 54.9779C224.845 55.1769 224.038 57.2625 224.038 57.2625C224.038 57.2625 229.833 56.8039 232.791 57.8077C235.758 58.8115 237.771 63.3894 236.027 64.2894C234.275 65.1894 230.059 64.2462 228.193 65.1202C226.328 65.9942 223.838 66.3317 222.763 65.925C221.687 65.5183 218.113 65.5183 218.113 65.5183L218.512 59.2096Z" fill="#EAA794"/>
<path d="M199.765 59.625C205.473 62.2385 214.799 68.1145 222.043 71.1866C229.286 74.2587 266.416 83.8298 267.865 85.8202C269.314 87.8106 269.487 103.188 263.875 106.07C258.262 108.952 216.247 106.962 216.247 106.962C216.247 106.962 226.814 186.516 229.954 196.875C229.954 196.875 215.467 223.373 180.445 220.483C145.432 217.592 135.282 199.038 135.282 199.038C135.282 199.038 148.563 120.747 147.115 109.428C147.115 109.428 94.4646 111.115 91.8099 106.78C89.1553 102.444 85.746 94.7337 88.6435 89.4375C91.541 84.1414 139.385 74.501 149.769 65.8298C160.162 57.15 187.637 54.0606 199.765 59.625Z" fill="#F46B5C"/>
<path d="M218.79 124.936C218.79 124.936 214.617 120.505 213.532 120.704C212.457 120.903 213.263 122.988 213.263 122.988C213.263 122.988 207.468 122.53 204.51 123.534C201.543 124.537 199.531 129.115 201.274 130.015C203.027 130.915 207.243 129.972 209.108 130.846C210.973 131.72 213.463 132.058 214.539 131.651C215.614 131.244 219.189 131.244 219.189 131.244L218.79 124.936Z" fill="#EAA794"/>
<path d="M172.88 23.6423C177.357 20.6221 188.183 18.6837 194.759 24.7154C201.335 30.7385 199.105 42.5596 201.474 49.2231C203.842 55.8866 209.854 60.0058 204.12 65.7952C198.385 71.5846 184.288 77.5471 174.494 73.6962C164.691 69.8452 158.783 62.6971 160.266 57.8337C161.741 52.9702 166.842 45.7356 166.842 41.0539C166.842 36.3721 168.716 26.4548 172.88 23.6423Z" fill="#212C59"/>
<path d="M141.441 68.1144C139.064 63.2423 141.077 50.4086 147.418 49.6817C153.76 48.9548 176.758 71.0048 183.282 70.4596C189.805 69.9144 215.519 57.4529 218.416 58.7163C221.314 59.9798 222.216 65.9423 219.865 69.0144C217.514 72.0865 190.933 92.3192 181.217 93.4096C171.509 94.4913 146.49 78.4558 141.441 68.1144Z" fill="#F3D166"/>
<path d="M93.4498 54.026C93.4498 54.026 74.4337 68.3135 68.2742 69.0317C62.1148 69.7587 36.9393 61.6414 35.1262 62.3683C33.3131 63.0952 30.5977 66.2539 31.8643 68.7375C33.1309 71.2212 58.4886 91.4366 67.1812 92.1548C75.8738 92.8817 90.9426 79.9962 93.5018 78.0577C97.7961 74.8039 95.74 52.9442 93.4498 54.026Z" fill="#F3D166"/>
<path d="M207.911 120.115C207.737 118.852 208.475 117.649 209.68 117.242C218.087 114.387 249.448 103.232 254.826 93.9029C261.046 83.1116 269.314 57.5568 273.305 53.9827C277.287 50.4087 318.225 48.6 324.384 51.8539C330.544 55.1077 351.009 98.4721 351.009 107.862C351.009 118.16 330.179 135.32 330.179 135.32C330.179 135.32 333.441 156.764 323.656 159.049C313.879 161.334 268.594 162.545 264.976 159.049C261.35 155.553 265.341 116.654 265.341 116.654C265.341 116.654 259.233 124.001 255.321 125.567C249.569 127.861 221.487 132.655 212.613 134.135C211.129 134.386 209.75 133.356 209.542 131.876L207.911 120.115Z" fill="#0CA6B4"/>
<path d="M204.718 305.524C204.718 305.524 205.742 313.771 205.022 314.316C204.293 314.861 190.838 314.861 188.66 314.619C186.483 314.377 190.534 311.911 191.558 311.487C192.581 311.062 196.451 309.081 197.11 308.596C197.778 308.112 199.045 305.896 199.045 305.896L204.718 305.524Z" fill="#212C59"/>
<path d="M168.386 305.524C168.386 305.524 169.41 313.771 168.69 314.316C167.961 314.861 154.506 314.861 152.328 314.619C150.151 314.377 154.202 311.911 155.226 311.487C156.25 311.062 160.119 309.081 160.778 308.596C161.446 308.112 162.713 305.896 162.713 305.896L168.386 305.524Z" fill="#212C59"/>
<path d="M276.983 305.524C276.983 305.524 278.614 303.412 283.568 303.594C288.521 303.776 288.703 304.737 288.816 305.524C288.938 306.303 290.933 313.711 288.512 314.498C286.101 315.277 267.987 314.922 266.66 314.922C265.332 314.922 266.842 311.729 269.557 310.284C272.272 308.838 274.086 308.838 274.745 308.414C275.413 307.99 276.983 305.524 276.983 305.524Z" fill="#C16E4F"/>
<path d="M307.294 305.524C307.294 305.524 308.925 303.412 313.879 303.594C318.832 303.776 319.014 304.737 319.127 305.524C319.249 306.303 321.244 313.711 318.824 314.498C316.412 315.277 298.298 314.922 296.971 314.922C295.643 314.922 297.153 311.729 299.868 310.284C302.583 308.838 304.397 308.838 305.065 308.414C305.724 307.99 307.294 305.524 307.294 305.524Z" fill="#C16E4F"/>
<path d="M63.017 17.1606C66.5304 17.6106 71.7095 19.4019 75.3358 24.1529C78.962 28.9038 76.9667 40.0413 74.2514 47.8471C71.536 55.6529 61.5682 61.7885 54.1422 58.9846C46.7162 56.1894 44.0008 47.8471 44.0008 47.8471C44.0008 47.8471 40.0189 45.45 37.8848 51.1961C34.8485 59.3913 26.1559 55.4625 24.7071 64.0471C24.0218 68.1058 36.7484 77.8759 25.1582 84.5567C13.5681 91.2375 -0.737336 66.574 1.79583 54.9692C4.33768 43.3644 10.766 42.7413 19.6408 40.6558C28.5156 38.5702 23.7962 32.3481 31.7254 31.2577C39.6546 30.176 42.7343 36.9519 42.7343 36.9519C42.7343 36.9519 37.3296 13.8981 63.017 17.1606Z" fill="#893E2A"/>
<path d="M42.2397 36.0779C42.2397 36.0779 43.6365 35.351 45.571 36.7356C47.5056 38.1202 45.7532 47.5183 44.0008 47.8471C42.2484 48.176 42.2397 47.3539 42.2397 47.3539C42.2397 47.3539 44.1136 42.0923 44.3305 40.1625C44.5474 38.2414 42.2397 36.0779 42.2397 36.0779Z" fill="#F3D166"/>
<path d="M33.92 32.0971C33.92 32.0971 30.5367 31.076 25.5918 32.9971C20.6383 34.9269 15.9797 41.9365 11.5206 43.5375C7.06152 45.1385 7.06152 45.1385 7.06152 45.1385L11.9977 45.5279C11.9977 45.5279 15.5025 42.6375 18.0357 40.1106C20.5689 37.5837 24.3599 34.2087 27.3529 33.9664C30.3545 33.724 33.92 32.0971 33.92 32.0971Z" fill="#893E2A"/>
<path d="M36.757 50.4952C36.757 50.4952 34.9438 57.0116 31.0486 59.6683C27.1535 62.325 24.6203 69.8279 25.4358 71.0914C26.2512 72.3549 23.7181 70.5635 23.7181 70.5635C23.7181 70.5635 27.0667 61.5116 30.2419 58.9847C33.4083 56.4577 33.9288 53.9827 33.9288 53.9827L36.757 50.4952Z" fill="#893E2A"/>
<path d="M13.9758 80.2991C13.4206 79.901 12.1887 79.5375 10.766 79.1135C7.46939 78.1442 2.94959 76.8116 1.03237 73.35C-1.70033 68.4173 1.85651 57.15 2.01267 56.674L3.04502 57.0029C3.01032 57.1154 -0.5205 68.3048 1.98664 72.8308C3.68699 75.9116 7.96388 77.1664 11.087 78.0837C12.6659 78.551 13.9238 78.9144 14.6265 79.4337L13.9758 80.2991Z" fill="#893E2A"/>
<path d="M221.982 5.84136C221.982 5.84136 217.028 4.75963 215.944 8.12597C214.86 11.4923 218.868 17.1606 221.21 17.4029C221.21 17.4029 220.776 25.1135 222.581 27.8827C224.394 30.6519 224.151 32.5817 224.151 32.5817C224.151 32.5817 226.684 26.801 228.619 27.6404C230.553 28.4798 229.226 35.4721 224.88 36.675C224.88 36.675 225.487 42.3952 228.506 44.0481C231.525 45.701 235.203 45.701 235.203 45.701C235.203 45.701 224.125 49.6558 227.387 56.8212C228.627 59.5385 232.783 60.1529 231.429 63.7702C230.067 67.3875 230.024 78.6721 237.615 79.6673C245.214 80.6712 249.266 74.6048 248.06 69.7933C246.854 64.9731 250.471 60.1616 253.369 57.9894C256.267 55.8173 256.371 52.6327 252.371 48.3058C249.292 44.9741 242.499 44.0308 242.499 44.0308C242.499 44.0308 251.313 41.1231 253.005 26.4289C254.696 11.7346 243.054 6.08367 234.388 6.80193C225.73 7.52886 221.982 5.84136 221.982 5.84136Z" fill="#893E2A"/>
<path d="M232.817 45.476C232.817 45.476 232.843 46.6183 234.778 46.5577C236.713 46.4971 244.139 44.55 244.321 44.0481C244.503 43.5462 244.503 43.0702 243.054 43.1308C241.605 43.1827 232.817 45.476 232.817 45.476Z" fill="#212C59"/>
<path d="M330.171 135.329C330.171 135.329 331.047 134.602 332.426 133.382C328.306 119.077 326.553 73.0904 326.553 73.0904C322.927 94.3183 330.171 135.329 330.171 135.329Z" fill="#0C467C"/>
</g>
<defs>
<clipPath id="clip0_1_60">
<rect width="351" height="315" fill="white"/>
</clipPath>
</defs>
</svg>
